# xmcd
#
# Track frame offsets: 
#        150
#        14207
#        24525
#        41192
#        54442
#        66870
#        79490
#        91357
#        100692
#        111287
#
# Disc length: 1917 seconds
#
# Revision: 1
# Processed by: cddbd v1.4PL0 Copyright (c) Steve Scherf et al.
# Submitted via: ExactAudioCopy v0.90b4
#
DISCID=87077b0a
DTITLE=Loretta Lynn - Sings Patsy Cline's Favorites
DYEAR=1977
DGENRE=Country
TTITLE0=She's Got You
TTITLE1=Walking After Midnight
TTITLE2=Why Can't He Be You
TTITLE3=Faded Love
TTITLE4=I Fall To Pieces
TTITLE5=Crazy
TTITLE6=Sweet Dreams
TTITLE7=Back In Baby's Arms
TTITLE8=Leavin' On Your Mind
TTITLE9=I Remember Patsy...A Conversation
EXTD=
EXTT0=
EXTT1=
EXTT2=
EXTT3=
EXTT4=
EXTT5=
EXTT6=
EXTT7=
EXTT8=
EXTT9=
PLAYORDER=
